<?xml version="1.0" standalone="no"?>
<!DOCTYPE svg PUBLIC "-//W3C//DTD SVG 20010904//EN"
 "http://www.w3.org/TR/2001/REC-SVG-20010904/DTD/svg10.dtd">
<svg version="1.0" xmlns="http://www.w3.org/2000/svg"
 width="260.000000pt" height="260.000000pt" viewBox="0 0 260.000000 260.000000"
 preserveAspectRatio="xMidYMid meet">
<metadata>
Created by potrace 1.11, written by Peter Selinger 2001-2013
</metadata>
<g transform="translate(0.000000,260.000000) scale(0.100000,-0.100000)"
fill="#000000" stroke="none">
<path d="M1165 2331 c-60 -9 -114 -19 -120 -22 -5 -4 -34 -12 -64 -19 -30 -7
-66 -19 -80 -26 -14 -8 -32 -14 -38 -14 -7 0 -13 -4 -13 -10 0 -5 -6 -10 -13
-10 -8 0 -42 -18 -76 -40 -34 -22 -63 -40 -65 -40 -15 0 -208 -188 -236 -230
-8 -12 -23 -31 -33 -42 -9 -12 -17 -25 -17 -29 0 -5 -13 -30 -29 -57 -16 -27
-32 -60 -36 -73 -4 -13 -11 -26 -15 -29 -9 -7 -38 -108 -58 -200 -21 -99 -21
-291 0 -390 20 -92 49 -193 58 -200 4 -3 11 -16 15 -29 4 -13 20 -46 36 -73
16 -27 29 -52 29 -57 0 -4 8 -17 18 -29 9 -11 24 -30 32 -42 28 -42 221 -230
236 -230 2 0 31 -18 65 -40 34 -22 68 -40 76 -40 7 0 13 -4 13 -10 0 -5 6 -10
13 -10 6 0 24 -6 38 -14 14 -7 50 -19 80 -26 30 -7 61 -17 69 -21 8 -4 69 -15
135 -24 109 -13 132 -13 230 0 202 29 332 77 490 184 110 75 256 232 298 321
4 8 20 38 36 65 16 28 30 56 30 63 1 8 7 28 14 45 39 90 69 251 69 362 0 111
-30 272 -69 362 -7 17 -13 37 -14 45 0 7 -14 36 -30 63 -16 28 -32 57 -36 65
-42 89 -188 246 -298 321 -112 76 -187 111 -310 148 -65 19 -271 53 -305 50
-8 -1 -64 -9 -125 -18z m-496 -570 c22 -38 41 -75 41 -81 0 -6 -13 -16 -30
-21 l-30 -11 0 -279 c0 -269 1 -279 19 -279 19 0 91 66 91 83 0 7 8 19 36 50
6 7 15 24 19 37 9 29 69 144 88 167 6 8 35 40 62 69 45 49 56 55 107 64 31 5
64 7 75 5 10 -2 31 -6 46 -10 44 -9 177 -149 177 -185 0 -6 5 -10 10 -10 6 0
10 -4 10 -10 0 -8 34 -65 57 -95 5 -5 20 -28 36 -51 49 -72 94 -105 155 -111
44 -5 58 -2 82 16 16 11 32 21 35 21 7 0 45 39 45 46 0 3 11 20 25 38 36 44
37 46 91 136 72 120 153 194 204 188 20 -2 26 -9 28 -34 2 -24 -2 -33 -22 -42
-14 -6 -38 -31 -53 -54 -15 -24 -31 -44 -35 -46 -5 -2 -8 -10 -8 -17 0 -8 -6
-20 -13 -27 -7 -7 -18 -24 -25 -38 -32 -63 -44 -80 -53 -80 -5 0 -9 -6 -9 -12
-1 -15 -41 -61 -89 -100 l-33 -28 81 0 c78 0 80 1 98 30 16 28 43 41 43 21 0
-5 8 -11 18 -14 37 -12 121 -72 111 -80 -13 -12 -151 -88 -153 -85 -1 1 -10
15 -19 31 l-17 27 -660 0 -660 0 0 -26 c0 -23 -3 -25 -32 -22 -25 2 -34 8 -36
25 -3 17 -11 23 -40 25 -34 3 -37 6 -40 36 -3 31 -2 32 37 32 l41 0 0 293 0
293 -30 18 -31 18 23 36 c12 20 26 39 30 40 4 2 8 9 8 16 0 15 29 56 39 56 5
0 27 -31 50 -69z"/>
<path d="M1075 1479 c-5 -5 -21 -20 -36 -32 -14 -12 -28 -29 -33 -37 -4 -8
-18 -33 -31 -55 -14 -22 -29 -51 -35 -65 -6 -13 -14 -27 -18 -30 -4 -3 -20
-31 -37 -64 -16 -32 -47 -76 -67 -97 l-36 -39 351 0 351 0 -42 36 c-39 33
-162 204 -162 225 0 5 -3 9 -8 9 -4 0 -13 14 -21 32 -15 33 -40 67 -80 105
-25 24 -77 31 -96 12z"/>
</g>
</svg>
